<svg xmlns="http://www.w3.org/2000/svg" height="800" width="1200" viewBox="-100.22565 -58.8405 868.6223 353.043"><path d="M0 235.332L91.638 8.747l75.813-.565 52.215 123.16 1.506-123.413h75.078l.98 131.945c.064 8.638 4.926 30.047 30.885 29.983 13.693.003 20.656-3.653 26.005-13.656 3.565-6.665 3.639-8.059 4.12-77.53l.489-70.742h76.715l1.227 67.373c.674-.03 4.457-8.838 8.406-17.13 11.88-24.945 33.808-43.636 61.518-52.438 12.078-3.836 16.18-4.458 36.184-5.486 53.651-2.757 93.906 17.554 113.48 57.259 8.715 17.677 11.912 33.124 11.912 57.558 0 37.035-10.33 64.731-31.813 85.298-20.414 19.543-44.106 28.31-79.947 29.582-28.454 1.011-43.854-1.855-65.355-12.163-12.796-6.135-17.727-9.664-27.939-19.993-12.367-12.51-18.275-22.215-24.282-39.886a1950.024 1950.024 0 01-4.155-12.468s-2.827 9.342-4.217 14.404c-10.676 38.87-41.724 55.8-102.35 55.814-35.34.008-56.455-4.603-74.124-14.615l-7.888-4.471c4.27 14.65 9.028 25.41 14.279 38.72h-84.452L133.134 101.57 84.167 235.36zm567.09-55.505c18.94-10.712 28.696-52.484 21.295-91.168-5.927-30.976-21.578-45.635-44.14-41.345-21.563 4.1-33.447 28.174-33.447 67.751 0 37.588 10.321 61.043 29.517 67.08 8.405 2.642 19.74 1.661 26.776-2.318z" fill="#00688f"/></svg>