<?xml version="1.0" standalone="no"?>
<!DOCTYPE svg PUBLIC "-//W3C//DTD SVG 20010904//EN"
 "http://www.w3.org/TR/2001/REC-SVG-20010904/DTD/svg10.dtd">
<svg version="1.0" xmlns="http://www.w3.org/2000/svg"
 width="694.000000pt" height="470.000000pt" viewBox="0 0 694.000000 470.000000"
 preserveAspectRatio="xMidYMid meet">

<g transform="translate(0.000000,470.000000) scale(0.100000,-0.100000)"
fill="#000000" stroke="none">
<path d="M2407 1843 c-20 -76 -54 -203 -75 -283 -22 -80 -52 -190 -66 -245
-15 -55 -29 -108 -32 -118 -5 -16 3 -17 117 -15 l123 3 23 95 c12 52 25 105
28 117 6 24 143 136 156 127 9 -5 46 -71 133 -234 l55 -105 141 -3 c77 -1 140
0 140 3 0 3 -11 23 -25 45 -14 22 -25 42 -25 45 0 2 -20 39 -45 81 -25 41 -45
77 -45 78 0 1 -27 51 -60 110 -33 59 -58 112 -55 116 3 5 98 78 211 162 l205
153 -176 3 -176 2 -46 -32 c-25 -18 -67 -49 -93 -68 -130 -95 -183 -131 -187
-126 -4 4 17 87 53 209 5 16 -5 17 -119 17 l-124 0 -36 -137z"/>
<path d="M3381 1943 c-30 -109 -73 -269 -97 -358 -14 -55 -44 -165 -65 -245
-21 -80 -39 -148 -39 -152 0 -5 61 -8 135 -8 74 0 135 2 135 6 0 3 14 58 31
122 17 64 46 173 64 242 18 69 52 191 74 272 23 82 41 150 41 153 0 3 -61 5
-135 5 l-134 0 -10 -37z"/>
<path d="M3766 1968 c-3 -7 -18 -71 -35 -143 -16 -71 -48 -206 -70 -300 -22
-93 -47 -201 -56 -240 -8 -38 -18 -78 -21 -87 -5 -17 5 -18 120 -18 l125 0 10
38 c5 20 24 109 40 197 39 202 40 205 49 205 8 -1 36 -47 163 -272 l94 -168
112 0 112 0 11 38 c5 22 14 61 19 88 9 48 75 331 126 541 14 56 25 109 25 118
0 13 -20 15 -129 15 l-129 0 -7 -42 c-11 -66 -82 -358 -89 -365 -9 -9 -4 -17
-116 205 l-103 202 -124 0 c-90 0 -125 -3 -127 -12z"/>
<path d="M4715 1968 c-10 -31 -47 -169 -100 -368 -55 -208 -103 -382 -112
-407 -4 -10 25 -13 125 -13 l130 0 11 33 c11 34 91 327 146 537 18 69 40 149
48 178 l16 52 -130 0 c-95 0 -131 -3 -134 -12z"/>
<path d="M5155 1968 c-2 -7 -20 -74 -40 -148 -19 -74 -50 -191 -69 -260 -81
-303 -96 -359 -96 -369 0 -7 40 -11 119 -11 l120 0 28 119 27 120 75 56 c41
31 78 52 82 48 4 -4 33 -57 65 -118 32 -60 72 -135 89 -165 l31 -55 137 -3
c91 -2 137 1 137 8 0 6 -11 28 -25 50 -14 22 -25 42 -25 45 0 2 -20 39 -45 81
-25 41 -45 77 -45 79 0 1 -25 46 -55 100 -30 53 -55 102 -55 108 0 7 94 82
208 167 l207 155 -174 3 c-149 2 -177 0 -200 -14 -14 -10 -82 -59 -151 -109
-164 -121 -154 -116 -146 -69 4 21 13 59 21 84 7 25 17 60 20 78 l7 32 -122 0
c-87 0 -122 -3 -125 -12z"/>
</g>
</svg>
